<svg width="14" height="16" viewBox="0 0 14 16" fill="none" xmlns="http://www.w3.org/2000/svg">
<path fill-rule="evenodd" clip-rule="evenodd" d="M13.0517 0.000151992H0.948387C0.425399 0.000151992 7.98702e-06 0.424754 7.98702e-06 0.947114V15.0529C7.98702e-06 15.5751 0.425501 15.9999 0.948387 15.9999H13.0517C13.5745 15.9999 14 15.5751 14 15.0529V0.947114C14 0.424754 13.5745 0.000151992 13.0517 0.000151992ZM0.758752 0.947114C0.758752 0.842768 0.843786 0.757682 0.948387 0.757682H13.0517C13.1563 0.757682 13.2413 0.842768 13.2413 0.947114V4.23163H0.758752V0.947114ZM4.41377 15.2424H0.948387C0.843905 15.2424 0.758752 15.1573 0.758752 15.0529V10.4935H4.41377V15.2424ZM4.41377 9.73601H0.758752V4.98916H4.41377V9.73601ZM8.82753 15.2424H5.17251V10.4935H8.82753V15.2424ZM8.82753 9.73601H5.17251V4.98916H8.82753V9.73601ZM13.2413 15.0529C13.2413 15.1573 13.1561 15.2424 13.0517 15.2424H9.58627V4.98916H13.2413V15.0529ZM3.52411 6.98372H2.96564V6.42613C2.96564 6.21678 2.79581 6.04704 2.58627 6.04704C2.37673 6.04704 2.2069 6.21678 2.2069 6.42613V6.98372H1.64831C1.43877 6.98372 1.26894 7.15324 1.26894 7.36258C1.26894 7.57171 1.43877 7.74147 1.64831 7.74147H2.2069V8.29927C2.2069 8.50861 2.37673 8.67837 2.58627 8.67837C2.79581 8.67837 2.96564 8.50861 2.96564 8.29927V7.74147H3.52411C3.73377 7.74147 3.9036 7.57171 3.9036 7.36258C3.9036 7.15324 3.73377 6.98372 3.52411 6.98372ZM6.0433 6.98372H7.95676C8.16618 6.98372 8.33613 7.15324 8.33613 7.36258C8.33613 7.57171 8.16618 7.74147 7.95676 7.74147H6.0433C5.83376 7.74147 5.66393 7.57171 5.66393 7.36258C5.66393 7.15324 5.83376 6.98372 6.0433 6.98372ZM3.12277 12.8689L3.58075 12.4115C3.72884 12.2637 3.72884 12.0239 3.58075 11.8758C3.43256 11.7279 3.19235 11.7279 3.04415 11.8758L2.58615 12.3332L2.12827 11.8758C1.98007 11.7279 1.73986 11.7279 1.59167 11.8758C1.44358 12.0235 1.44358 12.2637 1.59167 12.4115L2.04965 12.8689L1.59177 13.3263C1.44358 13.4742 1.44358 13.7142 1.59177 13.8623C1.66582 13.936 1.76286 13.973 1.86003 13.973C1.95706 13.973 2.05412 13.936 2.12827 13.8623L2.58615 13.4047L3.04415 13.8623C3.1183 13.936 3.21535 13.973 3.31239 13.973C3.40956 13.973 3.5066 13.936 3.58065 13.8623C3.72884 13.7142 3.72884 13.4742 3.58065 13.3263L3.12277 12.8689ZM7.45779 11.8758C7.606 11.7279 7.84621 11.7279 7.99439 11.8758C8.14248 12.0239 8.14248 12.2637 7.99439 12.4118L6.54191 13.8623C6.46788 13.9362 6.37071 13.973 6.27367 13.973C6.1765 13.973 6.07946 13.9362 6.00541 13.8623C5.85722 13.7142 5.85722 13.4742 6.00531 13.3263L7.45779 11.8758ZM6.27367 11.8205C6.45243 11.8205 6.5973 11.9653 6.5973 12.144C6.5973 12.3223 6.45243 12.4671 6.27367 12.4671C6.09492 12.4671 5.95003 12.3223 5.95003 12.144C5.95003 11.9653 6.09492 11.8205 6.27367 11.8205ZM8.0498 13.5941C8.0498 13.4156 7.90502 13.271 7.72627 13.271C7.54762 13.271 7.40274 13.4156 7.40274 13.5941C7.40274 13.7726 7.54762 13.9172 7.72627 13.9172C7.90502 13.9172 8.0498 13.7726 8.0498 13.5941ZM12.3723 9.07561H10.4331C10.2236 9.07561 10.0538 9.24537 10.0538 9.45449C10.0538 9.66383 10.2236 9.83335 10.4331 9.83335H12.3723C12.5818 9.83335 12.7517 9.66383 12.7517 9.45449C12.7517 9.24537 12.5819 9.07561 12.3723 9.07561ZM10.4331 10.398H12.3723C12.5819 10.398 12.7517 10.5677 12.7517 10.7768C12.7517 10.9864 12.5818 11.1559 12.3723 11.1559H10.4331C10.2236 11.1559 10.0538 10.9864 10.0538 10.7768C10.0538 10.5677 10.2236 10.398 10.4331 10.398Z" fill="#589BDA"/>
</svg>
