<svg width="19" height="24" viewBox="0 0 19 24" fill="none" xmlns="http://www.w3.org/2000/svg">
<path fill-rule="evenodd" clip-rule="evenodd" d="M9.49501 -0.000136971C4.26081 -0.000136971 -3.50475e-05 4.31708 -3.50475e-05 9.62023C-3.50475e-05 10.224 0.0546589 10.8327 0.168877 11.4264C0.173799 11.4617 0.193579 11.5673 0.233415 11.7484C0.377372 12.3975 0.590927 13.0367 0.86902 13.6452C1.89201 16.0856 4.14169 19.8338 9.07786 23.849C9.20203 23.9498 9.35103 23.9999 9.49993 23.9999C9.64893 23.9999 9.79792 23.9498 9.9221 23.849C14.8534 19.8338 17.108 16.0856 18.1308 13.6452C18.409 13.0367 18.6225 12.4027 18.7665 11.7484C18.8063 11.5673 18.8262 11.4617 18.8311 11.4264C18.9404 10.8327 19 10.224 19 9.62023C18.9901 4.31708 14.7292 -0.000136971 9.49501 -0.000136971ZM17.5001 11.19C17.5001 11.2 17.4952 11.2101 17.4952 11.2201C17.4903 11.2453 17.4753 11.3208 17.4506 11.4363C17.4506 11.4415 17.4506 11.4415 17.4506 11.4466C17.3264 12.0101 17.1426 12.5582 16.8993 13.0867C16.8944 13.0918 16.8944 13.1018 16.8894 13.1069C15.9608 15.3357 13.9247 18.7372 9.49501 22.4453C5.06535 18.7372 3.0292 15.3357 2.10062 13.1069C2.09559 13.1018 2.09559 13.0918 2.09066 13.0867C1.85229 12.5635 1.6685 12.0101 1.53942 11.4466C1.53942 11.4415 1.53942 11.4415 1.53942 11.4363C1.50966 11.3208 1.4997 11.2453 1.49478 11.2201C1.49478 11.2101 1.48974 11.2 1.48974 11.1849C1.39041 10.6667 1.34075 10.1435 1.34075 9.61497C1.34075 5.0615 5.00079 1.35348 9.49501 1.35348C13.9892 1.35348 17.6492 5.0615 17.6492 9.61497C17.6492 10.1485 17.5995 10.6768 17.5001 11.19ZM9.49501 3.61775C6.17277 3.61775 3.46625 6.35977 3.46625 9.72588C3.46625 13.0918 6.17277 15.834 9.49501 15.834C12.8172 15.834 15.5237 13.0918 15.5237 9.72588C15.5237 6.35977 12.8172 3.61775 9.49501 3.61775ZM9.49501 14.4756C6.90772 14.4756 4.80703 12.3421 4.80703 9.72588C4.80703 7.10964 6.91264 4.97618 9.49501 4.97618C12.0774 4.97618 14.183 7.10964 14.183 9.72588C14.183 12.3421 12.0823 14.4756 9.49501 14.4756Z" fill="#589BDA"/>
</svg>
