<svg width="22" height="22" viewBox="0 0 22 22" fill="none" xmlns="http://www.w3.org/2000/svg">
<path fill-rule="evenodd" clip-rule="evenodd" d="M21.4062 16.2067L18.6747 13.4751C17.9217 12.722 16.6963 12.722 15.9434 13.4751L14.7018 14.7165C14.1313 15.2872 13.203 15.287 12.6327 14.717L7.25124 9.33072C6.6795 8.7589 6.6794 7.83315 7.25124 7.26136C7.45129 7.06121 8.02555 6.48697 8.49282 6.01973C9.24263 5.26986 9.25306 4.04815 8.49214 3.28757L5.76147 0.565004C5.00833 -0.18793 3.783 -0.18793 3.03204 0.563262C2.47002 1.12042 2.28875 1.30023 2.03676 1.54981C-0.67881 4.26558 -0.67881 8.68431 2.03663 11.4001L10.5633 19.9313C13.2851 22.6538 17.6908 22.6538 20.4129 19.9313L21.4062 18.9382C22.1593 18.1852 22.1593 16.9598 21.4062 16.2067ZM3.94048 1.47589C4.19156 1.22475 4.59989 1.22475 4.85165 1.4763L7.58246 4.19863C7.83398 4.45021 7.83398 4.85753 7.58246 5.10908L7.12709 5.56452L3.48764 1.92452L3.94048 1.47589ZM11.4739 19.0213L2.94725 10.4894C0.84622 8.38835 0.730754 5.08916 2.59202 2.85007L6.22104 6.47933C5.26752 7.56017 5.30725 9.20756 6.34064 10.2411L11.7219 15.6272C11.7219 15.6272 11.722 15.6272 11.722 15.6274C12.7544 16.6595 14.4014 16.7021 15.4837 15.7471L19.1127 19.3763C16.8809 21.2346 13.5893 21.1366 11.4739 19.0213ZM20.4957 18.0277L20.0405 18.4832L16.3986 14.8408L16.8538 14.3856C17.1049 14.1347 17.5133 14.1347 17.7643 14.3856L20.4957 17.1171C20.7468 17.3682 20.7468 17.7766 20.4957 18.0277Z" fill="#589BDA"/>
</svg>
