<svg width="106" height="76" viewBox="0 0 106 76" fill="none" xmlns="http://www.w3.org/2000/svg">
<path fill-rule="evenodd" clip-rule="evenodd" d="M58.0208 19.174V23.2268C58.0208 23.2268 54.8945 17.2696 54.3789 15.96C53.8634 14.6514 53.4468 13.6255 53.1306 12.8806C52.8644 13.6419 52.4754 14.6785 51.9634 15.9882C51.4514 17.2991 50.869 18.8133 50.2151 20.531C49.5611 22.2483 48.8296 24.1397 48.0216 26.2046C49.3265 22.8694 42.3121 43.6096 40.8385 47.8326C40.1666 49.7547 39.5413 51.6211 38.9625 53.4297H26.5892C28.581 47.7818 30.4702 42.5618 32.2579 37.7699C34.0456 32.9791 35.7939 28.4648 37.5053 24.2282C39.2167 19.9919 40.9018 15.9705 42.5618 12.162C44.2218 8.3545 45.9462 4.63468 47.734 1.00342H59.0284C60.7671 4.63468 61.7877 6.5857 63.4763 10.393C65.1638 14.2017 67.568 19.174 67.568 19.174H58.0208Z" fill="#222D39"/>
<path fill-rule="evenodd" clip-rule="evenodd" d="M81.8889 42.1394H69.6139V53.6222H59.3847V42.1394H45.0638L48.4735 32.0076H59.3847V20.5248H69.6139V32.0076H81.8889V42.1394Z" fill="#589BDA"/>
<path fill-rule="evenodd" clip-rule="evenodd" d="M16.678 69.4093C17.2951 71.0145 17.9434 72.7645 18.6219 74.6597H15.0723C14.8281 73.96 14.5753 73.2683 14.3136 72.5851C14.0519 71.9024 13.7991 71.2022 13.5553 70.4849H5.91731C5.67309 71.2022 5.42441 71.9066 5.17164 72.598C4.91877 73.2895 4.67018 73.977 4.42633 74.6597H1.00738C1.68497 72.7645 2.32835 71.0145 2.93657 69.4093C3.54497 67.8046 4.14017 66.2845 4.72235 64.8502C5.30463 63.4158 5.88225 62.05 6.45587 60.7521C7.02959 59.4547 7.62079 58.1741 8.22901 56.9102H11.3676C11.9763 58.1741 12.5678 59.4547 13.1418 60.7521C13.7159 62.05 14.294 63.4158 14.8771 64.8502C15.46 66.2845 16.0602 67.8046 16.678 69.4093ZM12.711 67.8726C12.154 66.353 11.615 64.9359 11.0931 63.6208C10.5713 62.3061 10.1188 61.2132 9.73636 60.3424C9.33599 61.2476 8.87927 62.349 8.36647 63.6464C7.85311 64.9442 7.31817 66.353 6.76166 67.8726H12.711ZM30.1018 74.6597V63.8258H26.6314C26.6138 64.5774 26.5878 65.3585 26.5531 66.1692C26.5179 66.9805 26.4356 67.7788 26.3052 68.5641C26.1748 69.3496 25.97 70.1008 25.692 70.8179C25.4135 71.5351 25.0266 72.1798 24.5308 72.7518C24.035 73.3241 23.4174 73.8018 22.6782 74.1859C21.9386 74.5703 21.0384 74.8135 19.9775 74.9159L19.5339 72.329C20.4211 72.1586 21.1081 71.8807 21.5953 71.4966C22.0821 71.1125 22.4564 70.6218 22.7174 70.024C22.9261 69.5802 23.0868 69.0764 23.2001 68.5129C23.3131 67.9494 23.3999 67.3564 23.461 66.7327C23.5217 66.1097 23.5609 65.4738 23.5784 64.8246C23.5956 64.176 23.6045 63.544 23.6045 62.9293V61.2644H33.2589V74.6597H30.1018ZM40.4344 61.2644H37.2771V74.3268C38.1814 74.5318 39.0776 74.6855 39.9647 74.7879C40.8519 74.8903 41.8084 74.9415 42.835 74.9415C43.7222 74.9415 44.5266 74.856 45.2486 74.6855C45.9703 74.5149 46.5924 74.25 47.1142 73.8915C47.6361 73.533 48.036 73.0718 48.3146 72.5083C48.5926 71.9448 48.7321 71.2621 48.7321 70.4593C48.7321 69.6742 48.5839 68.9955 48.2885 68.4232C47.9925 67.8514 47.5925 67.3817 47.0881 67.0145C46.5834 66.6474 45.9878 66.3786 45.3008 66.2077C44.6133 66.0373 43.8787 65.9516 43.0958 65.9516C42.5912 65.9516 42.0868 65.9771 41.5824 66.0283C41.0778 66.0795 40.6953 66.1397 40.4344 66.2077V61.2644ZM41.4389 72.47C40.9954 72.4442 40.6602 72.4147 40.4344 72.3804V68.5641C40.6953 68.496 41.0256 68.4488 41.4259 68.4232C41.8259 68.3976 42.2087 68.3847 42.574 68.3847C42.974 68.3847 43.3568 68.4193 43.7222 68.4873C44.0875 68.5555 44.4046 68.6708 44.6746 68.8329C44.9441 68.9955 45.1613 69.2044 45.3269 69.4605C45.492 69.7167 45.5747 70.0327 45.5747 70.4081C45.5747 71.1425 45.3269 71.676 44.8311 72.0089C44.3353 72.3419 43.6439 72.5083 42.7567 72.5083C42.3217 72.5083 41.8825 72.4956 41.4389 72.47ZM59.1952 69.6911V74.6597H62.3526V61.5462C61.7434 61.3926 60.9566 61.2561 59.9911 61.1365C59.0257 61.0172 58.0297 60.9571 57.0035 60.9571C56.1163 60.9571 55.3074 61.0555 54.5768 61.2517C53.8462 61.4482 53.22 61.7382 52.6982 62.1224C52.1762 62.5067 51.7717 62.9849 51.4847 63.5569C51.1977 64.1292 51.0542 64.7907 51.0542 65.5418C51.0542 66.3613 51.2499 67.0744 51.6412 67.6803C52.0327 68.2867 52.6544 68.7688 53.507 69.1276C53.0022 69.8107 52.4633 70.6387 51.8892 71.6119C51.3151 72.5851 50.7933 73.6012 50.3236 74.6597H53.5592C53.9592 73.8747 54.3941 73.0506 54.8638 72.1881C55.3335 71.3262 55.8464 70.4849 56.4033 69.6653C56.5945 69.6825 56.7947 69.6911 57.0035 69.6911H57.6298H59.1952ZM59.1952 67.4371H57.0557C56.6552 67.4371 56.2814 67.4076 55.9336 67.3474C55.5854 67.2879 55.2812 67.1809 55.0204 67.0274C54.7594 66.8736 54.5548 66.6732 54.4072 66.4254C54.2592 66.178 54.1854 65.8662 54.1854 65.4904C54.1854 64.0906 55.1509 63.3902 57.0818 63.3902C57.4993 63.3902 57.9078 63.4031 58.3081 63.4287C58.7081 63.4543 59.0037 63.4843 59.1952 63.5184V67.4371ZM77.8257 61.2644H74.6684V66.4895H69.528V61.2644H66.3708V74.6597H69.528V69.0506H74.6684V74.6597H77.8257V61.2644ZM82.77 73.0078C82.2046 72.3847 81.7825 71.6419 81.5045 70.7796C81.2259 69.9175 81.0871 68.9825 81.0871 67.975C81.0871 66.9849 81.2436 66.0583 81.5567 65.196C81.8698 64.3339 82.3175 63.5869 82.9005 62.9549C83.4831 62.3234 84.1921 61.8279 85.027 61.4694C85.8621 61.1109 86.8014 60.9315 87.8451 60.9315C89.1322 60.9315 90.3502 61.1621 91.4981 61.6229L90.8198 64.1587C90.4545 64.0049 90.041 63.8769 89.5804 63.7746C89.1192 63.672 88.6279 63.6208 88.1061 63.6208C86.8707 63.6208 85.9314 64.001 85.2881 64.7607C84.6442 65.5206 84.3225 66.5918 84.3225 67.975C84.3225 69.3067 84.6266 70.3613 85.2359 71.1381C85.8445 71.9153 86.8707 72.3036 88.3148 72.3036C88.8538 72.3036 89.3845 72.2522 89.9065 72.1498C90.4284 72.0474 90.8805 71.9192 91.2633 71.7657L91.7069 74.3268C91.3588 74.4976 90.8328 74.6514 90.1283 74.7879C89.4237 74.9244 88.6973 74.9929 87.9494 74.9929C86.7839 74.9929 85.7707 74.8174 84.9096 74.4677C84.0486 74.1179 83.3351 73.6314 82.77 73.0078Z" fill="#222D39"/>
<path fill-rule="evenodd" clip-rule="evenodd" d="M99.7814 66.5V61.3705H96.7993V66.5H91.5937V69.4375H96.7993V74.5427H99.7814V69.4375H105V66.5H99.7814Z" fill="#589BDA"/>
</svg>
